<?xml version="1.0" standalone="no"?>
<!DOCTYPE svg PUBLIC "-//W3C//DTD SVG 20010904//EN"
 "http://www.w3.org/TR/2001/REC-SVG-20010904/DTD/svg10.dtd">
<svg version="1.0" xmlns="http://www.w3.org/2000/svg"
 width="260.000000pt" height="260.000000pt" viewBox="0 0 260.000000 260.000000"
 preserveAspectRatio="xMidYMid meet">
<metadata>
Created by potrace 1.14, written by Peter Selinger 2001-2017
</metadata>
<g transform="translate(0.000000,260.000000) scale(0.100000,-0.100000)"
fill="#000000" stroke="none">
<path d="M611 2304 c-30 -8 -76 -26 -103 -41 -57 -31 -149 -126 -178 -183 -48
-94 -50 -121 -50 -687 l0 -533 678 0 677 0 39 23 c76 43 95 134 46 214 -40 67
-45 67 -460 73 -362 5 -377 6 -433 29 -170 68 -291 289 -258 474 23 131 107
253 221 320 97 56 105 57 827 57 365 0 663 4 663 8 0 19 -61 101 -107 144 -59
54 -111 82 -190 103 -83 22 -1291 21 -1372 -1z"/>
<path d="M944 1740 c-27 -11 -72 -65 -80 -96 -9 -36 2 -94 24 -124 43 -58 56
-60 427 -60 252 0 353 -4 390 -14 131 -35 230 -117 292 -243 38 -76 38 -78 38
-197 0 -116 -1 -124 -32 -187 -52 -105 -146 -189 -261 -233 -56 -21 -72 -21
-745 -26 l-688 -5 39 -60 c70 -109 177 -184 294 -205 37 -7 279 -10 695 -8
l638 3 67 28 c81 35 182 123 220 194 57 103 58 119 58 705 l0 538 -677 -1
c-373 0 -687 -4 -699 -9z"/>
</g>
</svg>
